<svg xmlns="http://www.w3.org/2000/svg" height="512" viewBox="0 0 64 64" width="512"><g id="Flat"><g id="Color_copy" data-name="Color copy"><circle cx="31" cy="29" fill="#84d2f4" r="25"></circle><path d="m54.74 36.85a25 25 0 1 1 -26.48-32.7 25.012 25.012 0 0 0 23.74 32.85 24.884 24.884 0 0 0 2.74-.15z" fill="#57b7eb"></path><path d="m31 3a26 26 0 1 0 26 26 26.03 26.03 0 0 0 -26-26zm15.021 40.3a34.263 34.263 0 0 0 2.961-13.3h5.993a23.9 23.9 0 0 1 -6.075 14.959 26.446 26.446 0 0 0 -2.879-1.659zm-32.921 1.659a23.9 23.9 0 0 1 -6.075-14.959h5.993a34.263 34.263 0 0 0 2.961 13.3 26.446 26.446 0 0 0 -2.879 1.659zm2.879-30.259a34.263 34.263 0 0 0 -2.961 13.3h-5.993a23.9 23.9 0 0 1 6.075-14.959 26.446 26.446 0 0 0 2.879 1.659zm23.014 13.3a81.017 81.017 0 0 0 -.815-10.7 32.443 32.443 0 0 0 6.042-1.8 32.5 32.5 0 0 1 2.763 12.5zm-13.978 0a77.978 77.978 0 0 1 .759-10.358 37.862 37.862 0 0 0 5.226.358 37.862 37.862 0 0 0 5.226-.358 77.978 77.978 0 0 1 .759 10.358zm11.97 2a77.978 77.978 0 0 1 -.759 10.358 38.323 38.323 0 0 0 -10.452 0 77.978 77.978 0 0 1 -.759-10.358zm.87-14.671a28.87 28.87 0 0 0 -3.188-9.685c3.446 1.217 6.467 4.1 8.655 8.065a30.434 30.434 0 0 1 -5.467 1.62zm-1.951.339a35.879 35.879 0 0 1 -4.904.332 35.879 35.879 0 0 1 -4.9-.332c1.229-6.788 3.271-10.668 4.9-10.668s3.671 3.88 4.9 10.668zm-8.571-10.024a28.87 28.87 0 0 0 -3.188 9.685 30.434 30.434 0 0 1 -5.467-1.62c2.188-3.961 5.209-6.848 8.655-8.065zm-3.511 11.656a81.017 81.017 0 0 0 -.815 10.7h-7.99a32.5 32.5 0 0 1 2.763-12.5 32.443 32.443 0 0 0 6.042 1.8zm-8.805 12.7h7.99a81.017 81.017 0 0 0 .815 10.7 32.443 32.443 0 0 0 -6.042 1.8 32.5 32.5 0 0 1 -2.763-12.5zm9.128 12.671a28.87 28.87 0 0 0 3.188 9.685c-3.446-1.217-6.467-4.1-8.655-8.065a30.434 30.434 0 0 1 5.467-1.62zm1.951-.339a36.385 36.385 0 0 1 9.808 0c-1.233 6.788-3.275 10.668-4.904 10.668s-3.671-3.88-4.9-10.668zm8.571 10.024a28.87 28.87 0 0 0 3.188-9.685 30.434 30.434 0 0 1 5.467 1.62c-2.188 3.961-5.209 6.848-8.655 8.065zm3.511-11.656a81.017 81.017 0 0 0 .815-10.7h7.99a32.5 32.5 0 0 1 -2.763 12.5 32.443 32.443 0 0 0 -6.042-1.8zm10.804-12.7a34.263 34.263 0 0 0 -2.961-13.3 26.446 26.446 0 0 0 2.879-1.659 23.9 23.9 0 0 1 6.075 14.959zm-1.5-16.42a24.5 24.5 0 0 1 -2.358 1.331 22.722 22.722 0 0 0 -4.551-5.911 24.076 24.076 0 0 1 6.909 4.58zm-30.606 1.331a24.5 24.5 0 0 1 -2.358-1.331 24.076 24.076 0 0 1 6.909-4.58 22.722 22.722 0 0 0 -4.551 5.911zm-2.358 33.509a24.5 24.5 0 0 1 2.358-1.331 22.722 22.722 0 0 0 4.551 5.911 24.076 24.076 0 0 1 -6.909-4.58zm30.606-1.331a24.5 24.5 0 0 1 2.358 1.331 24.076 24.076 0 0 1 -6.909 4.58 22.722 22.722 0 0 0 4.551-5.911z" fill="#4891d3"></path><path d="m53.63 36.94a23.674 23.674 0 0 1 -4.73 8.02 26.993 26.993 0 0 0 -2.88-1.66 31.826 31.826 0 0 0 2.16-6.59c-.65-.1-1.3-.23-1.94-.39a29.85 29.85 0 0 1 -2.02 6.18 32.536 32.536 0 0 0 -6.04-1.8c.35-2.36.59-4.87.71-7.41a23.24 23.24 0 0 1 -1.95-1.34 76.135 76.135 0 0 1 -.71 8.41 38.17 38.17 0 0 0 -10.46 0 80.766 80.766 0 0 1 -.76-10.36h9.65a22.122 22.122 0 0 1 -1.87-2h-7.78a80.766 80.766 0 0 1 .76-10.36c.64.09 1.28.16 1.93.21a19.9 19.9 0 0 1 -.41-2.04c-.4-.04-.8-.09-1.19-.14.27-1.47.57-2.8.91-3.99a24.667 24.667 0 0 1 1.62-8.57 26 26 0 1 0 27.2 33.6c-.73.11-1.46.19-2.2.23zm-26.3-31.3a28.951 28.951 0 0 0 -3.19 9.69 30.6 30.6 0 0 1 -5.46-1.62c2.19-3.96 5.21-6.85 8.65-8.07zm-4.32 22.36h-7.99a32.282 32.282 0 0 1 2.76-12.5 32.536 32.536 0 0 0 6.04 1.8 80.059 80.059 0 0 0 -.81 10.7zm.81 12.7a32.536 32.536 0 0 0 -6.04 1.8 32.282 32.282 0 0 1 -2.76-12.5h7.99a80.059 80.059 0 0 0 .81 10.7zm-2.39-33.7a22.643 22.643 0 0 0 -4.55 5.91 22.467 22.467 0 0 1 -2.36-1.33 24.054 24.054 0 0 1 6.91-4.58zm-8.33 6.04a26.993 26.993 0 0 0 2.88 1.66 34.272 34.272 0 0 0 -2.96 13.3h-5.99a23.861 23.861 0 0 1 6.07-14.96zm-6.07 16.96h5.99a34.272 34.272 0 0 0 2.96 13.3 26.993 26.993 0 0 0 -2.88 1.66 23.861 23.861 0 0 1 -6.07-14.96zm7.49 16.42a22.467 22.467 0 0 1 2.36-1.33 22.643 22.643 0 0 0 4.55 5.91 24.054 24.054 0 0 1 -6.91-4.58zm4.16-2.13a30.6 30.6 0 0 1 5.46-1.62 28.951 28.951 0 0 0 3.19 9.69c-3.44-1.22-6.46-4.11-8.65-8.07zm12.32 8.71c-1.63 0-3.67-3.88-4.9-10.67a36.544 36.544 0 0 1 9.8 0c-1.23 6.79-3.27 10.67-4.9 10.67zm3.67-.64a28.951 28.951 0 0 0 3.19-9.69 30.6 30.6 0 0 1 5.46 1.62c-2.19 3.96-5.21 6.85-8.65 8.07zm5.9-1.36a22.643 22.643 0 0 0 4.55-5.91 22.467 22.467 0 0 1 2.36 1.33 24.054 24.054 0 0 1 -6.91 4.58z" fill="#2d72bc"></path><circle cx="14" cy="14" fill="#e9f1f2" r="11"></circle><path d="m24.4 17.59a11 11 0 1 1 -15.8-13.18 11.009 11.009 0 0 0 15.8 13.18z" fill="#d0d8da"></path><circle cx="14" cy="11" fill="#f9e109" r="4"></circle><path d="m21 20v2.49a11.016 11.016 0 0 1 -14 0v-2.49a5 5 0 0 1 5-5h4a5 5 0 0 1 5 5z" fill="#f9e109"></path><path d="m21 20v2.49a11.016 11.016 0 0 1 -14 0v-2.49a5.006 5.006 0 0 1 3.67-4.82 10.955 10.955 0 0 0 8.33 3.82 10.458 10.458 0 0 0 1.86-.16 4.913 4.913 0 0 1 .14 1.16z" fill="#fcbc04"></path><path d="m21 22v.49a11.016 11.016 0 0 1 -14 0v-2.49a5.017 5.017 0 0 1 2.21-4.15 8.011 8.011 0 0 0 7.79 6.15z" fill="#e59730"></path><path d="m17.64 12.64a3.995 3.995 0 1 1 -5.28-5.28 3.931 3.931 0 0 0 -.36 1.64 4 4 0 0 0 4 4 3.931 3.931 0 0 0 1.64-.36z" fill="#fcbc04"></path><circle cx="50" cy="50" fill="#e9f1f2" r="11"></circle><path d="m60.4 53.59a11 11 0 1 1 -15.8-13.18 11.009 11.009 0 0 0 15.8 13.18z" fill="#d0d8da"></path><circle cx="50" cy="47" fill="#f9e109" r="4"></circle><path d="m57 56v2.49a11.016 11.016 0 0 1 -14 0v-2.49a5 5 0 0 1 5-5h4a5 5 0 0 1 5 5z" fill="#f9e109"></path><path d="m57 56v2.49a11.016 11.016 0 0 1 -14 0v-2.49a5.006 5.006 0 0 1 3.67-4.82 10.955 10.955 0 0 0 8.33 3.82 10.458 10.458 0 0 0 1.86-.16 4.913 4.913 0 0 1 .14 1.16z" fill="#fcbc04"></path><path d="m57 58v.49a11.016 11.016 0 0 1 -14 0v-2.49a5.017 5.017 0 0 1 2.21-4.15 8.011 8.011 0 0 0 7.79 6.15z" fill="#e59730"></path><path d="m53.64 48.64a3.995 3.995 0 1 1 -5.28-5.28 3.931 3.931 0 0 0 -.36 1.64 4 4 0 0 0 4 4 3.931 3.931 0 0 0 1.64-.36z" fill="#fcbc04"></path><circle cx="52" cy="14" fill="#e9f1f2" r="7"></circle><path d="m56.98 18.92a7 7 0 1 1 -4.98-11.92 6.8 6.8 0 0 1 1.02.08 7 7 0 0 0 3.96 11.84z" fill="#d0d8da"></path><circle cx="52" cy="13.5" fill="#f9e109" r="2.5"></circle><path d="m54.48 13.8a2.5 2.5 0 1 1 -3.46-2.6c-.01.1-.02.2-.02.3a2.5 2.5 0 0 0 3.48 2.3z" fill="#fcbc04"></path><path d="m56 19v.74a6.979 6.979 0 0 1 -8 0v-.74a3 3 0 0 1 3-3h2a3 3 0 0 1 3 3z" fill="#f9e109"></path><path d="m52.25 15.99a2.175 2.175 0 0 1 -.25.01 2.5 2.5 0 0 1 -.95-4.81 7.337 7.337 0 0 0 -.05.81 6.924 6.924 0 0 0 1.25 3.99z" fill="#e59730"></path><path d="m56 19v.74a6.979 6.979 0 0 1 -8 0v-.74a3 3 0 0 1 3-3h1.26a7 7 0 0 0 3.72 2.71 1.415 1.415 0 0 1 .02.29z" fill="#fcbc04"></path><path d="m56 19v.74a6.979 6.979 0 0 1 -8 0v-.74a3 3 0 0 1 2.44-2.95 5 5 0 0 0 4.56 2.95z" fill="#e59730"></path><circle cx="43" cy="20" fill="#e9f1f2" r="9"></circle><path d="m51.04 24.04a9 9 0 1 1 -12.08-12.08 9 9 0 0 0 12.08 12.08z" fill="#d0d8da"></path><circle cx="43" cy="18" fill="#f9e109" r="3"></circle><path d="m48 24v3.48a8.984 8.984 0 0 1 -10 0v-3.48a3 3 0 0 1 3-3h4a3 3 0 0 1 3 3z" fill="#f9e109"></path><path d="m48 24.94v2.54a8.984 8.984 0 0 1 -10 0v-3.48a2.987 2.987 0 0 1 1.72-2.71 8.99 8.99 0 0 0 7.28 3.71 8.262 8.262 0 0 0 1-.06z" fill="#fcbc04"></path><path d="m48 27v.48a8.984 8.984 0 0 1 -10 0v-3.48a2.936 2.936 0 0 1 1.19-2.38 6.993 6.993 0 0 0 6.81 5.38z" fill="#e59730"></path><path d="m45.87 18.87a3 3 0 1 1 -3.74-3.74 3.1 3.1 0 0 0 -.13.87 3 3 0 0 0 3 3 3.1 3.1 0 0 0 .87-.13z" fill="#fcbc04"></path><circle cx="15" cy="52" fill="#e9f1f2" r="9"></circle><path d="m23.04 56.04a9 9 0 1 1 -12.08-12.08 9 9 0 0 0 12.08 12.08z" fill="#d0d8da"></path><circle cx="15" cy="50" fill="#f9e109" r="3"></circle><path d="m20 56v3.48a8.984 8.984 0 0 1 -10 0v-3.48a3 3 0 0 1 3-3h4a3 3 0 0 1 3 3z" fill="#f9e109"></path><path d="m20 56.94v2.54a8.984 8.984 0 0 1 -10 0v-3.48a2.987 2.987 0 0 1 1.72-2.71 8.99 8.99 0 0 0 7.28 3.71 8.262 8.262 0 0 0 1-.06z" fill="#fcbc04"></path><path d="m20 59v.48a8.984 8.984 0 0 1 -10 0v-3.48a2.936 2.936 0 0 1 1.19-2.38 6.993 6.993 0 0 0 6.81 5.38z" fill="#e59730"></path><path d="m17.87 50.87a3 3 0 1 1 -3.74-3.74 3.1 3.1 0 0 0 -.13.87 3 3 0 0 0 3 3 3.1 3.1 0 0 0 .87-.13z" fill="#fcbc04"></path></g></g></svg>