<svg xmlns="http://www.w3.org/2000/svg" height="512" viewBox="0 0 64 64" width="512"><g id="_19-Wallet" data-name="19-Wallet"><path d="m9 13h42a4 4 0 0 1 4 4v8a0 0 0 0 1 0 0h-46a6 6 0 0 1 -6-6 6 6 0 0 1 6-6z" fill="#8d6e63"></path><circle cx="29" cy="21" fill="#ffd54f" r="18"></circle><path d="m47 21a18.0014 18.0014 0 0 1 -18 18 18.8507 18.8507 0 0 1 -2-.11 18.0016 18.0016 0 0 0 0-35.78 18.8507 18.8507 0 0 1 2-.11 18.0014 18.0014 0 0 1 18 18z" fill="#ffca28"></path><circle cx="29" cy="21" fill="#ffb74d" r="14"></circle><path d="m31.5 34.78a14.7107 14.7107 0 0 1 -2.5.22 14 14 0 0 1 0-28 14.7107 14.7107 0 0 1 2.5.22 14.006 14.006 0 0 0 0 27.56z" fill="#ffa726"></path><path d="m30 20h-2a2 2 0 0 1 0-4h5a1 1 0 0 0 0-2h-3v-2a1 1 0 0 0 -2 0v2a4 4 0 0 0 0 8h2a2 2 0 0 1 0 4h-5a1 1 0 0 0 0 2h5a4 4 0 0 0 0-8z" fill="#eee"></path><path d="m59 29v28a4 4 0 0 1 -4 4h-46a6 6 0 0 1 -6-6v-36a6.0048 6.0048 0 0 0 6 6h46a4 4 0 0 1 4 4z" fill="#a1887f"></path><path d="m59 29v28a3.9989 3.9989 0 0 1 -4 4h-46a5.9969 5.9969 0 0 1 -5.98-5.66 5.9826 5.9826 0 0 0 4.98 2.66h42a3.9989 3.9989 0 0 0 4-4v-26a3.9837 3.9837 0 0 0 -1.36-3h2.36a3.9989 3.9989 0 0 1 4 4z" fill="#8d6e63"></path><path d="m48 36h11a2 2 0 0 1 2 2v10a2 2 0 0 1 -2 2h-11a7 7 0 0 1 -7-7 7 7 0 0 1 7-7z" fill="#ffb74d"></path><path d="m61 38v10a2.0059 2.0059 0 0 1 -2 2h-11a6.9812 6.9812 0 0 1 -6.96-6.34 6.6078 6.6078 0 0 0 1.01 1.29 6.9584 6.9584 0 0 0 4.95 2.05h5a3.9989 3.9989 0 0 0 4-4v-7h3a2.0059 2.0059 0 0 1 2 2z" fill="#ffa726"></path><circle cx="48" cy="43" fill="#eee" r="2"></circle><path d="m50 43a1.9972 1.9972 0 0 1 -3 1.73 1.9964 1.9964 0 0 0 0-3.46 1.9972 1.9972 0 0 1 3 1.73z" fill="#e0e0e0"></path></g></svg>